<svg xmlns="http://www.w3.org/2000/svg" xmlns:xlink="http://www.w3.org/1999/xlink" width="228.733" height="46.984" viewBox="0 0 228.733 46.984"><defs><style>.a{fill:#3e5506;}.b{clip-path:url(#a);}</style><clipPath id="a"><rect class="a" width="228.733" height="46.984"/></clipPath></defs><g transform="translate(0 0)"><g class="b" transform="translate(0 0)"><path class="a" d="M10.625,10.038C10.625,5.96,12.64,2.255,14.2,0c1.556,2.254,3.57,5.96,3.57,10.038s-2.014,7.783-3.57,10.038c-1.556-2.254-3.572-5.96-3.572-10.038m-1,9.4C6.74,16.558,2.694,15.362,0,14.869c.494,2.7,1.689,6.739,4.574,9.623S11.5,28.571,14.2,29.065c-.494-2.7-1.69-6.739-4.574-9.623m9.146,0c-2.883,2.885-4.078,6.929-4.572,9.623,2.695-.494,6.739-1.69,9.623-4.573s4.08-6.929,4.574-9.623c-2.7.494-6.74,1.69-9.624,4.573M9.623,28.366C6.74,25.482,2.694,24.285,0,23.793c.494,2.7,1.689,6.739,4.574,9.623s6.928,4.08,9.623,4.574c-.494-2.7-1.69-6.74-4.574-9.623m9.146,0c-2.883,2.885-4.078,6.929-4.572,9.623,2.695-.494,6.739-1.69,9.623-4.574s4.08-6.928,4.574-9.623c-2.7.494-6.74,1.69-9.624,4.573M9.623,37.361C6.74,34.477,2.694,33.281,0,32.788c.494,2.7,1.689,6.739,4.574,9.623S11.5,46.49,14.2,46.984c-.494-2.7-1.69-6.739-4.574-9.623m9.146,0c-2.883,2.885-4.078,6.929-4.572,9.623,2.695-.494,6.739-1.69,9.623-4.573s4.08-6.929,4.574-9.623c-2.7.494-6.74,1.69-9.624,4.573M9.623,10.453C6.74,7.569,2.694,6.373,0,5.88c.494,2.7,1.689,6.739,4.574,9.623S11.5,19.582,14.2,20.076c-.494-2.7-1.69-6.739-4.574-9.623m9.146,0c-2.883,2.885-4.078,6.929-4.572,9.623,2.695-.494,6.739-1.69,9.623-4.573S27.9,8.575,28.393,5.88c-2.7.494-6.74,1.69-9.624,4.573m205.918,3.062-.108.137L212.923,28.165V13.515h-4.151V33.336h4.877l10.931-13.492V33.336h4.151V13.515Zm-26,0h4.149v19.82h-4.149ZM43.034,33.313h9.043c6.512,0,10.976-3.924,10.976-9.953s-4.465-9.952-10.976-9.952H43.034Zm4.607-3.782V17.19H51.85c3.952,0,6.541,2.36,6.541,6.17S55.8,29.532,51.85,29.532Zm33.469,3.782h4.834l-8.9-19.9H72.495l-8.872,19.9h4.72l1.763-4.265h9.241Zm-9.526-7.762,3.156-7.622L77.9,25.551Zm19.564,7.762h4.607V17.162h6.37V13.408H84.779v3.753h6.369Zm27.327,0h4.835l-8.9-19.9H109.86l-8.871,19.9h4.72l1.761-4.265h9.243Zm-9.525-7.762,3.156-7.622,3.157,7.622Zm39.355,7.762h4.834l-8.9-19.9h-4.549l-8.873,19.9h4.72l1.763-4.265h9.241Zm-9.526-7.762,3.157-7.622,3.157,7.622Zm29.6,3.326a7.3,7.3,0,0,1-3.583.853,6.143,6.143,0,0,1-6.455-6.369,6.128,6.128,0,0,1,6.512-6.37A6.74,6.74,0,0,1,170,19.238l2.956-2.73a10.611,10.611,0,0,0-8.332-3.441c-6.34,0-10.947,4.294-10.947,10.294s4.607,10.293,10.862,10.293a13.741,13.741,0,0,0,8.048-2.53V23.048h-4.209Zm26.1,4.437-4.464-6.4a6.472,6.472,0,0,0,4.094-6.284c0-4.464-3.327-7.222-8.645-7.222h-8.616v19.9h4.606V27.768H185.7l3.839,5.545Zm-5.033-12.683c0,2.161-1.422,3.469-4.237,3.469h-3.753V17.162h3.753c2.815,0,4.237,1.28,4.237,3.469m11.01,22.035V40.709H203.5v-.735h-3.038V38.113h3.41V37.36H199.6v6.058H204v-.753Zm9.924.753-1.437-2.034a1.914,1.914,0,0,0,1.334-1.914c0-1.315-.953-2.111-2.527-2.111h-2.364v6.058h.865V41.574h1.5c.128,0,.259-.009.379-.017l1.308,1.861Zm-2.657-2.579h-1.472V38.113h1.472c1.107,0,1.688.493,1.688,1.358s-.581,1.368-1.688,1.368m6.315-3.479h-2.363v6.058h.866V41.583h1.5c1.575,0,2.526-.8,2.526-2.112s-.951-2.111-2.526-2.111m-.026,3.471h-1.471V38.113h1.471c1.107,0,1.688.493,1.688,1.358s-.58,1.36-1.688,1.36m4.333,1a.792.792,0,1,0-.788-.8.78.78,0,0,0,.788.8m2.265,1.592h.866V37.361h-.866Zm7.207,0h.909l-2.752-6.058h-.857l-2.744,6.058h.892l.667-1.514h3.219Zm-3.582-2.207,1.306-2.968,1.308,2.968Z" transform="translate(0 0)"/></g></g></svg>