<svg preserveAspectRatio="xMidYMid meet" data-bbox="0 0 152.473 32" xmlns="http://www.w3.org/2000/svg" viewBox="0 0 152.473 32" height="32" width="153" data-type="color" role="img" aria-label="Logotipo do Multiprova contendo as letras da palavra Multiprova em fonte pouco usual.">
    <g>
        <path fill="#3F72AF" d="M70.204 5.036c-.758 0-1.393-.235-1.905-.706-.49-.491-.737-1.095-.737-1.812 0-.716.246-1.31.737-1.781C68.811.246 69.446 0 70.203 0c.758 0 1.382.246 1.874.737.512.47.767 1.065.767 1.781 0 .717-.255 1.32-.767 1.812-.492.471-1.116.706-1.873.706Z" data-color="1"></path>
        <path fill="#3F72AF" d="M72.322 7.063v17.014h-4.299V7.063h4.3Z" data-color="1"></path>
        <path fill="#3F72AF" d="M54.326 1.351v22.726h-4.3V1.35h4.3Z" data-color="1"></path>
        <path fill="#3F72AF" d="M26.165 8.752c-1.27-1.29-2.948-1.934-5.036-1.934a6.948 6.948 0 0 0-3.44.89c-1.044.594-1.843 1.382-2.395 2.365a5.822 5.822 0 0 0-2.426-2.395c-1.045-.574-2.232-.86-3.563-.86-1.044 0-2.006.204-2.887.614a6.45 6.45 0 0 0-.68.377v3.46c.639-.47 1.439-.705 2.4-.705 1.167 0 2.088.359 2.764 1.075.676.696 1.014 1.71 1.014 3.04v9.398h4.299v-9.398c0-1.33.338-2.344 1.013-3.04.696-.716 1.628-1.075 2.795-1.075s2.088.359 2.764 1.075c.676.696 1.013 1.71 1.013 3.04v9.398h4.3v-9.981c0-2.293-.645-4.074-1.935-5.344Z" data-color="1"></path>
        <path fill="#3F72AF" d="M4.3 15.247v8.83H0V7.063h4.296v8.184h.003Z" data-color="1"></path>
        <path fill="#3F72AF" d="M47.013 24.077V7.063h-4.33v9.367c0 1.351-.338 2.395-1.014 3.132-.675.717-1.607 1.075-2.794 1.075-1.167 0-2.089-.358-2.764-1.075-.676-.737-1.014-1.78-1.014-3.132V7.063h-4.3v9.981c0 1.515.287 2.825.86 3.931.594 1.085 1.403 1.914 2.427 2.488 1.023.552 2.2.829 3.531.829 1.044 0 2.007-.205 2.887-.615.901-.43 1.628-1.013 2.18-1.75v2.15h4.33Z" data-color="1"></path>
        <path fill="#3F72AF" d="M62.351 18.825v-8.23h3.808V7.063h-3.808V2.856h-4.33v4.207h-2.027v3.532h2.027v8.2c0 3.521 1.812 5.282 5.436 5.282h2.702v-3.624h-1.996c-.655 0-1.126-.123-1.413-.369-.266-.266-.399-.685-.399-1.259Z" data-color="1"></path>
        <path fill="#3F72AF" d="M80.317 8.2c-1.147.737-1.986 1.668-2.518 2.794V7.31h-2.12V32h2.12V20.392c.532 1.126 1.382 2.067 2.549 2.825 1.167.737 2.538 1.106 4.115 1.106 1.515 0 2.876-.359 4.084-1.075 1.229-.717 2.18-1.73 2.856-3.04.696-1.311 1.044-2.826 1.044-4.546 0-1.72-.348-3.224-1.044-4.514-.675-1.31-1.627-2.314-2.856-3.01-1.208-.716-2.57-1.075-4.084-1.075-1.597 0-2.98.38-4.146 1.137Zm9.12 3.87c.554 1.002.83 2.2.83 3.592 0 1.372-.276 2.58-.83 3.624-.531 1.024-1.269 1.812-2.21 2.365-.942.532-2.007.798-3.194.798a6.24 6.24 0 0 1-3.163-.829c-.942-.553-1.69-1.341-2.242-2.365-.553-1.023-.83-2.21-.83-3.562 0-1.351.277-2.539.83-3.563.553-1.023 1.3-1.811 2.242-2.364a6.239 6.239 0 0 1 3.163-.83c1.187 0 2.252.267 3.194.8.941.531 1.678 1.31 2.21 2.333Z" clip-rule="evenodd" fill-rule="evenodd" data-color="1"></path>
        <path fill="#3F72AF" d="M96.71 10.288a5.277 5.277 0 0 1 2.15-2.426c.983-.573 2.18-.86 3.593-.86v2.242h-.584c-1.556 0-2.804.42-3.746 1.259-.942.84-1.413 2.242-1.413 4.207v9.367h-2.15V7.309h2.15v2.979Z" data-color="1"></path>
        <path fill="#3F72AF" d="M106.915 23.278c1.27.696 2.693 1.045 4.269 1.045s3.01-.349 4.299-1.045a7.753 7.753 0 0 0 3.041-3.04c.737-1.31 1.105-2.825 1.105-4.545 0-1.74-.368-3.255-1.105-4.545a7.351 7.351 0 0 0-3.01-3.01c-1.269-.716-2.692-1.075-4.269-1.075-1.576 0-2.999.359-4.268 1.075-1.27.696-2.273 1.7-3.01 3.01-.737 1.29-1.105 2.805-1.105 4.545 0 1.74.358 3.265 1.074 4.576.737 1.29 1.73 2.293 2.979 3.01Zm7.34-1.566a6.538 6.538 0 0 1-3.071.737 6.538 6.538 0 0 1-3.071-.737c-.921-.512-1.669-1.27-2.242-2.273-.553-1.023-.829-2.272-.829-3.746 0-1.474.276-2.713.829-3.716.573-1.024 1.331-1.781 2.273-2.273a6.325 6.325 0 0 1 3.071-.767 6.33 6.33 0 0 1 3.071.767c.942.492 1.699 1.25 2.272 2.273.574 1.003.86 2.242.86 3.716 0 1.474-.297 2.723-.89 3.746-.574 1.004-1.331 1.761-2.273 2.273Z" clip-rule="evenodd" fill-rule="evenodd" data-color="1"></path>
        <path fill="#3F72AF" d="m127.663 21.988 5.651-14.679h2.272l-6.725 16.768h-2.426l-6.726-16.768h2.303l5.651 14.68Z" data-color="1"></path>
        <path fill="#3F72AF" d="M136.688 11.148c-.676 1.29-1.013 2.794-1.013 4.514 0 1.72.337 3.235 1.013 4.545.696 1.31 1.648 2.324 2.856 3.04 1.229.717 2.6 1.076 4.115 1.076 1.597 0 2.969-.37 4.115-1.106 1.167-.758 2.017-1.71 2.549-2.856v3.716h2.15V7.309h-2.15v3.685c-.511-1.146-1.351-2.088-2.518-2.825-1.146-.737-2.518-1.106-4.115-1.106-1.536 0-2.917.359-4.146 1.075-1.208.696-2.16 1.7-2.856 3.01Zm12.806.982c.553 1.024.829 2.212.829 3.563s-.276 2.539-.829 3.562c-.553 1.024-1.31 1.812-2.272 2.365-.942.553-1.986.83-3.133.83-1.187 0-2.252-.267-3.194-.8-.941-.552-1.689-1.34-2.241-2.364-.533-1.044-.799-2.252-.799-3.624 0-1.392.266-2.59.799-3.593.552-1.024 1.3-1.802 2.241-2.334.942-.532 2.007-.798 3.194-.798 1.147 0 2.191.276 3.133.829.962.553 1.719 1.34 2.272 2.364Z" clip-rule="evenodd" fill-rule="evenodd" data-color="1"></path>
    </g>
</svg>